<svg width="364" height="305" viewBox="0 0 364 305" fill="none" xmlns="http://www.w3.org/2000/svg">
<path d="M151.29 87.2083C158.781 76.5961 173.433 73.8408 184.554 80.9531L189.128 83.878C196.498 88.5915 205.719 89.2909 213.6 85.7344L233.155 76.9108C242.017 72.9117 252.301 79.0109 253.067 88.7202C253.706 96.818 260.732 103.02 268.883 102.681L282.898 102.097C293.113 101.672 298.784 113.886 291.752 121.168C285.886 127.242 287.956 137.352 295.783 140.852C305.165 145.046 304.733 158.408 295.108 161.714L281.902 166.249C274.222 168.887 270.163 177.173 272.765 184.902C275.885 194.169 268.77 203.54 258.988 203.047L237.404 201.959C228.704 201.52 220.443 205.507 215.478 212.54L212.398 216.904C204.906 227.516 190.254 230.272 179.133 223.159L174.559 220.234C167.189 215.521 157.969 214.821 150.087 218.378L130.533 227.202C121.671 231.201 111.387 225.101 110.621 215.392C109.982 207.294 102.955 201.092 94.8048 201.431L80.789 202.015C70.574 202.44 64.9037 190.226 71.9356 182.945C77.8015 176.87 75.7308 166.76 67.9043 163.261C58.522 159.066 58.9543 145.704 68.5793 142.399L81.7857 137.863C89.4657 135.226 93.5247 126.939 90.9223 119.21C87.8021 109.944 94.9175 100.573 104.7 101.066L126.284 102.154C134.984 102.592 143.244 98.6055 148.209 91.5726L151.29 87.2083Z" fill="#F5DAD2" stroke="black"/>
<path d="M120.561 155.112L120.705 155.726L119.1 156.083C118.781 156.154 118.654 156.325 118.718 156.598L121.97 170.395C122.527 172.757 122.261 174.68 121.173 176.165C120.079 177.627 118.382 178.614 116.082 179.126C113.781 179.638 111.811 179.467 110.172 178.612C108.527 177.735 107.426 176.116 106.869 173.754L103.617 159.957C103.553 159.685 103.361 159.584 103.042 159.655L101.436 160.012L101.292 159.399L108.262 157.848L108.406 158.461L106.8 158.819C106.481 158.89 106.354 159.061 106.418 159.334L109.727 173.369C110.176 175.277 110.978 176.593 112.131 177.316C113.302 178.012 114.696 178.18 116.313 177.82C117.953 177.455 119.235 176.692 120.16 175.53C121.079 174.346 121.295 172.72 120.808 170.653L117.556 156.856C117.492 156.584 117.3 156.483 116.982 156.554L115.376 156.911L115.231 156.298L120.561 155.112ZM120.689 155.729L120.544 155.116L128.881 153.262C130.817 152.831 132.584 153.059 134.184 153.947C135.801 154.806 136.842 156.223 137.308 158.199C137.773 160.175 137.474 161.903 136.408 163.383C135.36 164.835 133.868 165.776 131.932 166.207L128.481 166.975L130.232 174.401C130.307 174.719 130.504 174.843 130.823 174.772L133.112 174.262L133.256 174.876L125.603 176.578L125.459 175.965L127.064 175.608C127.383 175.537 127.505 175.342 127.43 175.024L122.869 155.675C122.805 155.402 122.614 155.301 122.295 155.372L120.689 155.729ZM128.935 154.254L125.655 154.983L128.257 166.021L131.536 165.291C132.88 164.992 133.811 164.212 134.328 162.949C134.84 161.664 134.922 160.283 134.574 158.807C134.227 157.331 133.537 156.134 132.505 155.216C131.469 154.276 130.278 153.955 128.935 154.254ZM156.363 169.736L156.216 169.266C156.081 168.795 155.843 168.597 155.501 168.673C155.319 168.713 155.018 168.912 154.599 169.268C153.311 170.415 151.915 171.155 150.412 171.49C147.542 172.128 144.952 171.665 142.641 170.099C140.353 168.529 138.803 166.017 137.989 162.565C137.17 159.09 137.427 156.165 138.761 153.789C140.112 151.385 142.245 149.859 145.161 149.21C146.641 148.881 148.21 148.926 149.867 149.347C150.404 149.49 150.775 149.539 150.98 149.493C151.322 149.417 151.448 149.138 151.358 148.656L151.256 148.07L151.905 147.925L153.294 153.819L152.679 153.955C152.062 152.252 151.099 151.116 149.79 150.547C148.499 149.95 147.033 149.833 145.393 150.198C143.321 150.659 141.861 151.94 141.014 154.041C140.189 156.136 140.149 158.762 140.893 161.919C141.637 165.076 142.858 167.41 144.557 168.92C146.255 170.431 148.129 170.958 150.179 170.502C151.819 170.137 153.089 169.424 153.99 168.363C154.908 167.275 155.263 165.833 155.056 164.039L155.671 163.902L157.012 169.591L156.363 169.736ZM160.15 166.204C157.885 164.629 156.343 162.104 155.524 158.629C154.705 155.154 154.962 152.229 156.296 149.853C157.652 147.471 159.777 145.959 162.669 145.316C165.585 144.667 168.175 145.131 170.44 146.706C172.728 148.277 174.281 150.8 175.1 154.274C175.919 157.749 175.651 160.677 174.294 163.058C172.961 165.434 170.836 166.947 167.921 167.595C165.028 168.239 162.438 167.775 160.15 166.204ZM158.609 150.055C157.744 152.184 157.684 154.826 158.428 157.983C159.172 161.14 160.41 163.494 162.142 165.044C163.897 166.59 165.753 167.145 167.712 166.709C169.671 166.274 171.094 164.989 171.981 162.856C172.869 160.722 172.94 158.077 172.196 154.92C171.452 151.763 170.203 149.412 168.448 147.866C166.694 146.321 164.837 145.766 162.878 146.201C160.919 146.637 159.496 147.922 158.609 150.055ZM194.903 161.163L194.758 160.55L196.364 160.193C196.683 160.122 196.81 159.95 196.746 159.677L192.643 142.27L189.846 162.288L188.685 162.546L177.321 146.216L181.287 163.044C181.362 163.362 181.559 163.486 181.878 163.415L183.484 163.058L183.628 163.671L178.299 164.856L178.154 164.243L179.76 163.886C180.079 163.815 180.201 163.621 180.126 163.303L175.565 143.953C175.501 143.68 175.309 143.58 174.99 143.651L173.384 144.008L173.24 143.395L178.125 142.308L189.247 158.37L191.928 139.238L196.814 138.151L196.958 138.764L195.353 139.121C195.034 139.192 194.912 139.387 194.987 139.705L199.548 159.054C199.612 159.327 199.803 159.428 200.122 159.357L201.728 159L201.873 159.613L194.903 161.163ZM204.375 157.909L199.814 138.559C199.75 138.287 199.558 138.186 199.239 138.257L197.634 138.614L197.489 138.001L204.459 136.45L204.603 137.064L202.997 137.421C202.679 137.492 202.551 137.663 202.616 137.936L207.176 157.286C207.251 157.604 207.448 157.727 207.767 157.656L209.373 157.299L209.517 157.912L202.548 159.463L202.403 158.849L204.009 158.492C204.328 158.421 204.45 158.227 204.375 157.909ZM226.307 154.178L208.98 138.026L213.204 155.945C213.279 156.263 213.475 156.386 213.794 156.316L215.4 155.958L215.545 156.572L210.215 157.757L210.07 157.144L211.676 156.787C211.995 156.716 212.117 156.521 212.042 156.203L207.481 136.854C207.417 136.581 207.225 136.48 206.906 136.551L205.301 136.908L205.156 136.295L210.178 135.178L225.002 148.947L221.436 133.821C221.362 133.503 221.165 133.38 220.846 133.451L219.24 133.808L219.095 133.195L224.425 132.009L224.57 132.622L222.964 132.979C222.645 133.05 222.518 133.222 222.582 133.495L227.4 153.934L226.307 154.178ZM234.876 130.294C232.804 130.755 231.344 132.036 230.496 134.136C229.672 136.232 229.632 138.858 230.376 142.015C231.12 145.172 232.341 147.505 234.04 149.016C235.738 150.526 237.544 151.069 239.457 150.643C241.393 150.212 242.622 149.425 243.143 148.281C243.682 147.11 243.727 145.57 243.277 143.662L242.956 142.3C242.892 142.027 242.7 141.926 242.381 141.997L240.092 142.507L239.948 141.893L246.917 140.343L247.062 140.956L246.139 141.161C245.82 141.232 245.693 141.404 245.757 141.677L246.046 142.903C246.523 144.924 246.188 146.756 245.04 148.397C243.888 150.016 242.173 151.079 239.895 151.585C237.025 152.224 234.435 151.76 232.124 150.195C229.836 148.624 228.286 146.113 227.472 142.661C226.653 139.186 226.91 136.261 228.244 133.884C229.595 131.481 231.728 129.954 234.643 129.306C236.124 128.977 237.693 129.022 239.35 129.442C239.887 129.586 240.258 129.634 240.463 129.589C240.805 129.513 240.931 129.234 240.841 128.752L240.739 128.165L241.388 128.021L242.777 133.914L242.162 134.051C241.545 132.348 240.582 131.212 239.273 130.642C237.982 130.045 236.516 129.929 234.876 130.294ZM248.845 128.262L251.034 142.582L250.146 142.78L245.668 128.969C245.352 127.629 245.718 126.842 246.766 126.609C247.836 126.371 248.53 126.922 248.845 128.262ZM252.521 145.837C252.937 146.079 253.199 146.427 253.306 146.881C253.413 147.335 253.333 147.76 253.067 148.153C252.823 148.542 252.484 148.785 252.052 148.881C251.619 148.977 251.194 148.905 250.778 148.663C250.384 148.416 250.133 148.065 250.026 147.611C249.919 147.157 249.988 146.735 250.231 146.346C250.498 145.952 250.848 145.707 251.281 145.611C251.713 145.515 252.127 145.59 252.521 145.837ZM256.512 126.557L258.701 140.877L257.813 141.074L253.335 127.263C253.019 125.923 253.385 125.137 254.433 124.904C255.503 124.666 256.197 125.217 256.512 126.557ZM260.188 144.132C260.604 144.373 260.866 144.722 260.973 145.176C261.08 145.63 261 146.054 260.734 146.448C260.49 146.837 260.151 147.079 259.719 147.176C259.286 147.272 258.861 147.199 258.445 146.957C258.051 146.71 257.8 146.36 257.693 145.905C257.586 145.451 257.655 145.03 257.899 144.641C258.165 144.247 258.515 144.002 258.948 143.905C259.381 143.809 259.794 143.884 260.188 144.132Z" fill="black"/>
</svg>
