<svg width="52" height="50" viewBox="0 0 52 50" fill="none" xmlns="http://www.w3.org/2000/svg">
<path d="M29.7306 17.664L29.8771 18.2438L30.4219 17.9969L44.589 11.5733L35.174 23.9558L34.812 24.4319L35.3447 24.7038L49.1999 31.775L33.6487 32.1344L33.0507 32.1483L33.1703 32.7343L36.2804 47.9755L26.3033 36.0412L25.9197 35.5824L25.5361 36.0412L15.5591 47.9756L18.6691 32.7343L18.7887 32.1483L18.1908 32.1344L2.63961 31.775L16.4948 24.7038L17.0275 24.4319L16.6655 23.9558L7.25052 11.5733L21.4176 17.9969L21.9623 18.2438L22.1088 17.664L25.9197 2.58265L29.7306 17.664Z" fill="#FCFFE0" stroke="black"/>
</svg>
