<svg width="228" height="129" viewBox="0 0 228 129" fill="none" xmlns="http://www.w3.org/2000/svg">
<path d="M140.698 21.7931L171.958 16.7282L173.448 35.9873L173.48 36.402L173.893 36.4459L208.391 40.1066L195.02 55.8918L194.56 56.4352L195.227 56.6835L226.026 68.1427L200.56 77.6157L199.729 77.9247L200.423 78.4759L221.701 95.3729L188.868 96.7258L188.156 96.7551L188.425 97.4144L196.248 116.566L162.313 109.358L161.907 109.271L161.748 109.656L154.364 127.506L126.211 113.005L125.965 112.878L125.726 113.02L104.226 125.85L87.7588 106.99L87.5762 106.781L87.3022 106.825L56.042 111.89L54.5523 92.631L54.5202 92.2162L54.1066 92.1723L19.6087 88.5116L32.9801 72.7265L33.4404 72.183L32.7729 71.9347L1.97378 60.4755L27.4401 51.0025L28.2709 50.6935L27.5768 50.1423L6.29851 33.2453L39.1325 31.8924L39.8441 31.8631L39.5747 31.2038L31.752 12.0525L65.6865 19.2604L66.0935 19.3468L66.2525 18.9624L73.6358 1.11255L101.789 15.6135L102.035 15.7406L102.274 15.5984L123.774 2.7685L140.241 21.6284L140.424 21.8375L140.698 21.7931Z" fill="#FCFFE0" stroke="black"/>
</svg>
